<?xml version="1.0" standalone="no"?>
<!DOCTYPE svg PUBLIC "-//W3C//DTD SVG 20010904//EN"
 "http://www.w3.org/TR/2001/REC-SVG-20010904/DTD/svg10.dtd">
<svg version="1.0" xmlns="http://www.w3.org/2000/svg"
 width="480.000000pt" height="480.000000pt" viewBox="0 0 480.000000 480.000000"
 preserveAspectRatio="xMidYMid meet">
<metadata>
Created by potrace 1.14, written by Peter Selinger 2001-2017
</metadata>
<g transform="translate(0.000000,480.000000) scale(0.100000,-0.100000)"
fill="#000000" stroke="none">
<path d="M906 4189 c-62 -15 -153 -68 -197 -116 -22 -24 -55 -74 -72 -111
l-32 -67 0 -1495 0 -1495 32 -67 c41 -88 113 -160 201 -201 l67 -32 1496 0
1495 0 76 38 c116 57 193 154 218 275 7 31 10 554 8 1512 l-3 1465 -33 70
c-41 88 -124 169 -208 205 l-59 25 -1475 2 c-862 0 -1491 -3 -1514 -8z m2695
-990 l141 -141 -871 -871 -871 -870 -471 471 -471 471 142 142 142 141 324
-323 c177 -178 326 -325 331 -326 4 -2 334 323 733 722 399 399 726 725 728
725 1 0 66 -63 143 -141z"/>
</g>
</svg>
